<svg width="20" height="20" viewBox="0 0 20 20" fill="none" xmlns="http://www.w3.org/2000/svg">
<path fill-rule="evenodd" clip-rule="evenodd" d="M0.5 10.1665C0.5 9.33808 1.17157 8.6665 2 8.6665H18.3333C19.1618 8.6665 19.8333 9.33808 19.8333 10.1665C19.8333 10.9949 19.1618 11.6665 18.3333 11.6665H2C1.17157 11.6665 0.5 10.9949 0.5 10.1665Z" fill="#476288"/>
<path fill-rule="evenodd" clip-rule="evenodd" d="M11.2273 0.93934C11.8131 1.52513 11.8131 2.47487 11.2273 3.06066L4.12132 10.1667L11.2273 17.2727C11.8131 17.8585 11.8131 18.8082 11.2273 19.394C10.6415 19.9798 9.69179 19.9798 9.10601 19.394L0.93934 11.2273C0.353553 10.6415 0.353553 9.69179 0.93934 9.10601L9.10601 0.93934C9.69179 0.353553 10.6415 0.353553 11.2273 0.93934Z" fill="#476288"/>
</svg>
