<svg width="19" height="19" viewBox="0 0 19 19" fill="none" xmlns="http://www.w3.org/2000/svg">
<circle cx="9.5" cy="9.5" r="9.5" fill="#56C90F"/>
<g clip-path="url(#clip0_45_111)">
<path d="M10.5998 12.0756C10.8277 11.7844 11.0556 11.4931 11.2835 11.2019C11.3291 11.1443 11.3716 11.0866 11.4172 11.032C11.6573 10.7408 12.0128 10.6559 12.3531 10.8257C12.9244 11.1139 13.4926 11.4082 14.0608 11.7025C14.231 11.7904 14.4042 11.8754 14.5744 11.9664C15.0089 12.1969 15.1305 12.649 14.8661 13.0646C14.5896 13.5014 14.3009 13.9292 14.0335 14.369C13.7509 14.8332 13.3528 15.0395 12.812 14.9879C12.2376 14.9333 11.6694 14.8544 11.1194 14.6633C10.0559 14.2932 9.08654 13.7502 8.20229 13.0585C6.7498 11.9239 5.57383 10.5588 4.75947 8.89634C4.45864 8.28354 4.21555 7.64647 4.10311 6.96997C4.04842 6.66661 4.01499 6.35414 3.9998 6.04471C3.98157 5.62606 4.16085 5.29236 4.5103 5.05877C4.97218 4.74934 5.43405 4.44598 5.89897 4.14261C6.30615 3.87565 6.78019 3.99396 7.00505 4.42171C7.39096 5.16192 7.77079 5.90516 8.15063 6.65144C8.31472 6.97604 8.2266 7.34311 7.93792 7.57367C7.63102 7.81636 7.31803 8.05602 7.00809 8.29567C6.97466 8.31994 6.94428 8.34725 6.90781 8.37758C7.7556 9.99452 8.98019 11.2262 10.5998 12.0756V12.0756Z" fill="white"/>
</g>
<defs>
<clipPath id="clip0_45_111">
<rect width="11" height="11" fill="white" transform="translate(4 4)"/>
</clipPath>
</defs>
</svg>
