<?xml version="1.0" encoding="utf-8"?>
<!-- Generator: Adobe Illustrator 26.5.0, SVG Export Plug-In . SVG Version: 6.00 Build 0)  -->
<svg version="1.1" id="Layer_1" xmlns="http://www.w3.org/2000/svg" xmlns:xlink="http://www.w3.org/1999/xlink" x="0px" y="0px"
	 viewBox="0 0 300 70.9" style="enable-background:new 0 0 300 70.9;" xml:space="preserve">
<style type="text/css">
	.st0{fill:#004AAD;}
	.st1{fill:#286291;}
</style>
<g>
	<g transform="translate(36.231862, 43.828531)">
		<g>
			<path class="st0" d="M-30.1-29.5h4.6v27.6h-4.6V-29.5z M-25.5-34.1h-4.6v-4.6h4.6V-34.1z"/>
		</g>
	</g>
</g>
<g>
	<g transform="translate(42.154284, 43.828531)">
		<g>
			<path class="st0" d="M1.6-1.9v-15.4c0-1.7-0.1-3.1-0.4-4.3c-0.2-1.2-0.8-2.1-1.5-2.8C-1-25.1-2.1-25.7-3.5-26
				c-1.4-0.3-3.3-0.5-5.6-0.5c-2.5,0-4.5,0.2-6.1,0.6c-1.6,0.4-2.8,0.9-3.8,1.6c-0.9,0.7-1.6,1.5-1.9,2.4c-0.3,0.9-0.5,2-0.5,3.1
				v16.9H-26v-27.6h4.6v4.6c0.3-0.8,0.8-1.5,1.4-2c0.6-0.6,1.3-1.1,2.1-1.5c0.8-0.4,1.7-0.7,2.6-1c0.9-0.2,1.8-0.4,2.7-0.6
				c0.9-0.1,1.8-0.2,2.7-0.3c0.9-0.1,1.6-0.1,2.3-0.1c2.1,0,3.8,0.1,5.3,0.4c1.5,0.2,2.7,0.6,3.8,1.1c1,0.5,1.9,1.1,2.5,1.8
				c0.6,0.7,1.1,1.6,1.4,2.6c0.3,1,0.6,2,0.7,3.2c0.1,1.2,0.2,2.5,0.2,3.9v15.4H1.6z"/>
		</g>
	</g>
</g>
<g>
	<g transform="translate(60.623544, 43.828531)">
		<g>
			<path class="st0" d="M0.9-26v24.1h-4.6V-26h-4.6v-3.5h4.6v-0.2c0-1.9,0.2-3.4,0.6-4.6c0.4-1.3,1.1-2.3,2.1-3
				c1-0.7,2.2-1.3,3.8-1.6c1.6-0.3,3.5-0.5,5.8-0.5H14v3.9H8.6c-1.5,0-2.7,0-3.6,0.1s-1.8,0.3-2.4,0.6c-0.6,0.4-1,0.9-1.3,1.7
				c-0.2,0.8-0.4,1.9-0.4,3.4v0.2H14v3.5H0.9z"/>
		</g>
	</g>
</g>
<g>
	<g transform="translate(72.421561, 43.828531)">
		<g>
			<path class="st0" d="M2.2-15.9c0-2.8,0.3-5.1,0.9-7c0.6-1.9,1.6-3.3,2.9-4.4c1.3-1.1,3.1-1.9,5.2-2.3c2.1-0.4,4.7-0.7,7.8-0.7
				c3.1,0,5.7,0.2,7.8,0.7c2.1,0.4,3.9,1.2,5.2,2.3c1.3,1.1,2.3,2.6,2.9,4.4c0.6,1.9,0.9,4.2,0.9,7c0,2.8-0.3,5.2-0.9,7.1
				c-0.6,1.9-1.6,3.3-2.9,4.5c-1.3,1.1-3.1,1.9-5.2,2.3s-4.7,0.7-7.8,0.7c-3.1,0-5.7-0.2-7.8-0.7S7.4-3.3,6-4.4
				C4.7-5.5,3.8-7,3.1-8.9C2.5-10.7,2.2-13.1,2.2-15.9z M6.8-15.9c0,1.6,0,2.9,0.2,4C7.1-10.8,7.3-9.8,7.6-9c0.3,0.8,0.7,1.5,1.3,2
				c0.6,0.5,1.3,0.9,2.2,1.2c0.9,0.3,2,0.5,3.3,0.6C15.8-5,17.3-5,19.1-5c1.5,0,2.9,0,4.1-0.1c1.2-0.1,2.3-0.2,3.2-0.5
				c0.9-0.3,1.7-0.6,2.3-1.1c0.6-0.5,1.2-1.1,1.6-2c0.4-0.8,0.7-1.8,0.9-3c0.2-1.2,0.3-2.6,0.3-4.3c0-1.6-0.1-3-0.3-4.2
				c-0.2-1.2-0.5-2.1-0.9-2.9c-0.4-0.8-0.9-1.4-1.6-1.9c-0.6-0.5-1.4-0.8-2.3-1c-0.9-0.2-2-0.4-3.2-0.4c-1.2-0.1-2.6-0.1-4.1-0.1
				c-1.5,0-2.9,0-4.1,0.1c-1.2,0.1-2.3,0.2-3.1,0.4c-0.9,0.2-1.7,0.6-2.3,1C8.9-24.4,8.4-23.8,8-23c-0.4,0.8-0.7,1.7-0.9,2.9
				C6.9-19,6.8-17.6,6.8-15.9z"/>
		</g>
	</g>
</g>
<g>
	<g transform="translate(90.87858, 43.828531)">
		<g>
			<path class="st0" d="M37.5-30.3c3.1,0,5.7,0.2,7.8,0.7c2.1,0.5,3.9,1.3,5.2,2.4c1.3,1.1,2.3,2.6,2.9,4.5c0.6,1.9,0.9,4.2,0.9,7.1
				c0,2.8-0.3,5.1-0.9,6.9c-0.6,1.8-1.6,3.3-2.9,4.4c-1.3,1.1-3.1,1.9-5.2,2.3s-4.8,0.7-7.8,0.7c-2.2,0-4-0.1-5.5-0.4
				c-1.5-0.2-2.7-0.5-3.6-0.9c-0.9-0.4-1.6-0.7-2.1-1.2c-0.5-0.4-0.8-0.8-1-1.2V7.3h-4.6v-36.8h4.6v2.6c0.2-0.3,0.6-0.7,1-1.1
				c0.5-0.4,1.2-0.7,2.1-1.1c0.9-0.3,2.1-0.6,3.6-0.9C33.5-30.2,35.3-30.3,37.5-30.3z M37.5-26.5c-1.5,0-2.9,0-4.1,0.1
				c-1.2,0.1-2.3,0.3-3.2,0.5c-0.9,0.2-1.7,0.6-2.3,1.1c-0.6,0.5-1.2,1.1-1.6,1.9c-0.4,0.8-0.7,1.8-0.9,2.9
				c-0.2,1.2-0.3,2.6-0.3,4.2c0,1.7,0.1,3.1,0.3,4.3c0.2,1.2,0.5,2.2,0.9,3c0.4,0.8,0.9,1.4,1.6,1.9c0.6,0.5,1.4,0.8,2.3,1.1
				c0.9,0.2,2,0.4,3.2,0.5C34.6-5,36-5,37.5-5c1.8,0,3.3,0,4.6-0.2c1.3-0.1,2.4-0.3,3.3-0.6c0.9-0.3,1.7-0.7,2.2-1.2
				c0.6-0.5,1-1.2,1.3-2c0.3-0.8,0.5-1.7,0.6-2.8c0.1-1.1,0.2-2.4,0.2-3.9c0-1.5-0.1-2.8-0.2-3.9c-0.1-1.1-0.3-2.1-0.6-2.9
				c-0.3-0.8-0.7-1.5-1.3-2c-0.6-0.5-1.3-0.9-2.2-1.2c-0.9-0.3-2-0.5-3.3-0.6C40.9-26.4,39.3-26.5,37.5-26.5z"/>
		</g>
	</g>
</g>
<g>
	<g transform="translate(109.727304, 43.828531)">
		<g>
			<path class="st0" d="M40.2-29.5h4.6v27.6h-4.6V-29.5z M44.8-34.1h-4.6v-4.6h4.6V-34.1z"/>
		</g>
	</g>
</g>
<g>
	<g transform="translate(115.649725, 43.828531)">
		<g>
			<path class="st0" d="M60.5-1.4c-3.1,0-5.7-0.2-7.8-0.6c-2.1-0.4-3.9-1.2-5.2-2.2c-1.3-1-2.3-2.4-2.9-4.2
				c-0.6-1.8-0.9-3.9-0.9-6.6c0-3,0.3-5.5,0.9-7.5c0.6-2,1.6-3.5,2.9-4.7c1.3-1.2,3.1-2,5.2-2.4c2.1-0.5,4.7-0.7,7.8-0.7
				c2.2,0,4.1,0.2,5.7,0.5c1.6,0.3,3,0.8,4.1,1.4c1.1,0.6,2.1,1.4,2.8,2.2c0.7,0.9,1.3,1.8,1.7,2.7c0.4,0.9,0.7,2,0.8,3.3
				c0.2,1.3,0.2,2.6,0.2,4l-0.4,1.5H48.2c0,2.1,0.2,3.9,0.6,5.2c0.4,1.3,1.1,2.3,2,3c1,0.6,2.2,1,3.8,1.2C56.2-5.1,58.2-5,60.5-5
				c2.1,0,3.8-0.1,5.2-0.2c1.4-0.1,2.5-0.3,3.3-0.7c0.8-0.3,1.4-0.8,1.7-1.4c0.3-0.6,0.5-1.4,0.5-2.4h4.6c0,1.5-0.3,2.8-0.8,3.8
				c-0.5,1-1.4,1.9-2.6,2.5c-1.2,0.6-2.8,1.1-4.7,1.4C65.8-1.6,63.3-1.4,60.5-1.4z M60.5-26.5c-1.5,0-2.9,0-4.1,0.1
				c-1.2,0.1-2.3,0.2-3.1,0.4c-0.9,0.2-1.7,0.5-2.3,0.9c-0.6,0.4-1.1,0.9-1.5,1.4c-0.4,0.6-0.7,1.3-0.9,2.3c-0.2,1-0.3,2.2-0.3,3.6
				h23c0-1.9-0.2-3.3-0.6-4.4c-0.4-1.1-1-1.9-1.9-2.6c-0.9-0.7-2-1.2-3.3-1.4C64-26.3,62.4-26.5,60.5-26.5z"/>
		</g>
	</g>
</g>
<g>
	<g transform="translate(133.715038, 43.828531)">
		<g>
			<path class="st0" d="M63.2-29.5v3.4H85L61.6-5.7v3.8h29.1v-3.4H67.7l23.1-20.3v-3.9H63.2z"/>
		</g>
	</g>
</g>
<g>
	<g transform="translate(150.605232, 43.828531)">
		<g>
			<path class="st0" d="M105.3-5.7c0,0.2-0.4,0.7-1.1,1.4c-0.5,0.6-1.1,1.1-1.9,1.5c-0.8,0.5-1.9,0.8-3.2,1
				c-1.3,0.2-3.1,0.4-5.2,0.4c-2.9,0-5.4-0.2-7.4-0.5c-2-0.3-3.7-0.7-5-1.3c-1.3-0.6-2.2-1.4-2.8-2.4c-0.6-1-0.9-2.1-0.9-3.4
				c0-1.4,0.2-2.6,0.5-3.5c0.3-1,0.8-1.8,1.4-2.4c0.6-0.6,1.4-1.2,2.3-1.5c0.9-0.4,1.9-0.6,3.1-0.8c1.1-0.2,2.4-0.3,3.8-0.4
				c1.4,0,2.8-0.1,4.3-0.1c2.2,0,4,0.1,5.5,0.3s2.7,0.4,3.6,0.7c0.9,0.3,1.6,0.6,2.1,0.9c0.5,0.3,0.8,0.6,1,0.9
				c0-1.8-0.1-3.3-0.2-4.6c-0.1-1.3-0.4-2.3-0.7-3.1c-0.3-0.9-0.8-1.5-1.3-2c-0.6-0.5-1.2-0.9-2-1.1c-0.8-0.3-1.7-0.4-2.8-0.5
				c-1.1-0.1-2.3-0.1-3.6-0.1c-2.1,0-3.9,0.1-5.3,0.2c-1.4,0.1-2.5,0.3-3.3,0.6c-0.8,0.3-1.4,0.7-1.7,1.3c-0.3,0.5-0.5,1.2-0.5,2.1
				h-4.6c0-1.4,0.3-2.7,0.8-3.7c0.5-1,1.4-1.8,2.6-2.5c1.2-0.6,2.8-1.1,4.8-1.4c2-0.3,4.4-0.4,7.3-0.4c2.8,0,5.2,0.2,7.1,0.7
				c2,0.5,3.5,1.3,4.7,2.4c1.2,1.2,2.1,2.7,2.6,4.7c0.6,2,0.8,4.5,0.8,7.5v13h-4.6V-5.7z M94.6-5c2,0,3.7-0.1,5.1-0.3
				c1.4-0.2,2.5-0.5,3.3-0.9c0.8-0.4,1.4-0.9,1.8-1.4c0.3-0.6,0.5-1.2,0.5-2c0-0.7-0.2-1.4-0.6-1.9c-0.4-0.6-1.1-1-2-1.3
				c-0.9-0.3-2.2-0.6-3.8-0.7c-1.6-0.2-3.5-0.2-5.8-0.2c-2.3,0-4.2,0-5.6,0.1c-1.4,0.1-2.5,0.3-3.3,0.6c-0.8,0.3-1.3,0.7-1.5,1.3
				c-0.3,0.6-0.4,1.3-0.4,2.3c0,1,0.1,1.7,0.4,2.4c0.3,0.6,0.9,1.1,1.7,1.4c0.9,0.3,2.1,0.6,3.7,0.7C89.8-5,91.9-5,94.6-5z"/>
		</g>
	</g>
</g>
<g>
	<g transform="translate(169.001052, 43.828531)">
		<g>
			<path class="st0" d="M111.5-14.5c1.8,0,3.3,0,4.6,0.1c1.3,0,2.3,0.1,3.1,0.3c0.9,0.1,1.5,0.3,2,0.5c0.5,0.2,0.9,0.5,1.1,0.9
				c0.3,0.4,0.4,0.8,0.5,1.2c0.1,0.4,0.1,0.9,0.1,1.4c0,0.6,0,1.1-0.1,1.6c-0.1,0.5-0.2,0.9-0.5,1.3c-0.3,0.4-0.7,0.7-1.2,1
				c-0.5,0.3-1.2,0.5-2.1,0.7c-0.9,0.2-2,0.3-3.4,0.4c-1.3,0.1-3,0.1-4.9,0.1c-2.1,0-3.9-0.1-5.3-0.2c-1.4-0.1-2.5-0.3-3.3-0.7
				c-0.8-0.3-1.4-0.8-1.7-1.4c-0.3-0.6-0.5-1.4-0.5-2.4h-4.6c0,1.5,0.3,2.7,0.8,3.7c0.5,1,1.4,1.8,2.6,2.4c1.2,0.6,2.8,1.1,4.7,1.4
				c2,0.3,4.4,0.4,7.2,0.4c2.3,0,4.3-0.1,6.1-0.2c1.7-0.1,3.2-0.3,4.5-0.6c1.2-0.3,2.3-0.6,3.1-1.1c0.8-0.5,1.5-1,2-1.7
				c0.5-0.6,0.8-1.4,1-2.2c0.2-0.8,0.3-1.8,0.3-2.8s-0.1-1.9-0.3-2.7c-0.2-0.8-0.5-1.5-1-2c-0.5-0.6-1.1-1.1-1.9-1.6
				c-0.8-0.5-1.8-0.9-3-1.1c-1.2-0.2-2.6-0.4-4.3-0.5c-1.6-0.1-3.5-0.2-5.7-0.2c-1.8,0-3.3,0-4.6,0c-1.3,0-2.3-0.1-3.2-0.2
				c-0.8-0.1-1.5-0.2-2-0.4c-0.5-0.2-0.9-0.4-1.1-0.8c-0.2-0.3-0.4-0.8-0.5-1.3c-0.1-0.5-0.1-1.1-0.1-1.6c0-0.9,0.2-1.6,0.6-2.2
				c0.4-0.5,1.1-0.9,2.1-1.2c1-0.3,2.2-0.4,3.8-0.5c1.6-0.1,3.5-0.1,5.8-0.1c2.1,0,3.8,0.1,5.2,0.2c1.4,0.1,2.5,0.4,3.3,0.7
				c0.8,0.3,1.4,0.7,1.7,1.3c0.3,0.5,0.5,1.2,0.5,2.1h4.6c0-1.4-0.2-2.6-0.7-3.6c-0.5-1-1.3-1.8-2.4-2.5c-1.1-0.7-2.7-1.2-4.7-1.5
				c-2-0.3-4.5-0.5-7.5-0.5c-3.1,0-5.7,0.1-7.8,0.4c-2.1,0.3-3.9,0.7-5.2,1.3c-1.3,0.6-2.3,1.4-2.9,2.4c-0.6,1-0.9,2.2-0.9,3.6
				c0,1.1,0.1,2,0.3,2.9c0.2,0.9,0.5,1.7,1,2.3c0.5,0.6,1.1,1.1,1.9,1.5c0.8,0.4,1.8,0.7,3,0.9c1.2,0.2,2.6,0.3,4.3,0.4
				C107.4-14.5,109.3-14.5,111.5-14.5z"/>
		</g>
	</g>
</g>
<g>
	<g transform="translate(36.231862, 56.244577)">
		<g>
			<path class="st1" d="M-32.9,3.2V10h-0.9V2.6h1.5l4.3,6.5l4.3-6.5h1.5V10h-0.9V3.3l-4.4,6.6h-0.9L-32.9,3.2z"/>
		</g>
	</g>
</g>
<g>
	<g transform="translate(44.589496, 56.244577)">
		<g>
			<path class="st1" d="M-22.9,10c-0.6,0-1.1,0-1.6-0.1c-0.4-0.1-0.8-0.2-1-0.4c-0.3-0.2-0.5-0.5-0.6-0.8c-0.1-0.3-0.2-0.8-0.2-1.3
				c0-0.6,0.1-1.1,0.2-1.5c0.1-0.4,0.3-0.7,0.6-0.9c0.3-0.2,0.6-0.4,1-0.5c0.4-0.1,0.9-0.2,1.6-0.2c0.4,0,0.8,0,1.1,0.1
				c0.3,0.1,0.6,0.2,0.8,0.3c0.2,0.1,0.4,0.3,0.6,0.5c0.1,0.2,0.3,0.3,0.3,0.5c0.1,0.2,0.1,0.4,0.2,0.7c0,0.2,0.1,0.5,0.1,0.8
				l-0.1,0.3h-5.4c0,0.4,0,0.8,0.1,1c0.1,0.3,0.2,0.5,0.4,0.6c0.2,0.1,0.5,0.2,0.8,0.2c0.3,0,0.7,0,1.2,0c0.4,0,0.8,0,1,0
				c0.3,0,0.5-0.1,0.7-0.1c0.2-0.1,0.3-0.2,0.3-0.3c0.1-0.1,0.1-0.3,0.1-0.5h0.9c0,0.3-0.1,0.5-0.2,0.8c-0.1,0.2-0.3,0.4-0.5,0.5
				c-0.2,0.1-0.6,0.2-0.9,0.2C-21.8,10-22.3,10-22.9,10z M-22.9,5c-0.3,0-0.6,0-0.8,0c-0.2,0-0.4,0.1-0.6,0.1
				c-0.2,0-0.4,0.1-0.5,0.2c-0.1,0.1-0.2,0.2-0.3,0.3c-0.1,0.1-0.1,0.3-0.2,0.5c0,0.2-0.1,0.4-0.1,0.7h4.6c0-0.4,0-0.6-0.1-0.9
				c-0.1-0.2-0.2-0.4-0.4-0.5c-0.2-0.1-0.4-0.2-0.7-0.3C-22.2,5.1-22.5,5-22.9,5z"/>
		</g>
	</g>
</g>
<g>
	<g transform="translate(49.9317, 56.244577)">
		<g>
			<path class="st1" d="M-16.2,6.2c0-0.2,0-0.4-0.1-0.6c0-0.2-0.1-0.3-0.2-0.4c-0.1-0.1-0.3-0.2-0.6-0.2c-0.2,0-0.6-0.1-1-0.1
				c-0.4,0-0.7,0-1,0.1c-0.2,0.1-0.5,0.2-0.6,0.3c-0.1,0.1-0.2,0.3-0.3,0.5c0,0.2-0.1,0.4-0.1,0.6V10H-21V4.4h0.9v0.9
				c0-0.1,0.1-0.2,0.2-0.3c0.1-0.1,0.2-0.2,0.4-0.3c0.2-0.1,0.4-0.2,0.7-0.3c0.3-0.1,0.6-0.1,1-0.1c0.5,0,0.9,0.1,1.2,0.2
				c0.3,0.1,0.5,0.2,0.7,0.4c0.2,0.2,0.3,0.4,0.4,0.6s0.1,0.5,0.1,0.8H-16.2z"/>
		</g>
	</g>
</g>
<g>
	<g transform="translate(54.568997, 56.244577)">
		<g>
			<path class="st1" d="M-16.7,7.2c0-0.4,0-0.7,0.1-1c0-0.3,0.1-0.6,0.2-0.8c0.1-0.2,0.2-0.4,0.4-0.6c0.2-0.1,0.4-0.3,0.6-0.3
				c0.2-0.1,0.5-0.2,0.9-0.2c0.3,0,0.7-0.1,1.2-0.1c0.6,0,1.1,0,1.5,0.1c0.4,0.1,0.7,0.2,0.9,0.4c0.2,0.1,0.4,0.3,0.5,0.6
				c0.1,0.2,0.2,0.5,0.2,0.8h-0.9c0-0.1,0-0.2,0-0.3c0-0.1,0-0.2-0.1-0.3c0-0.1-0.1-0.2-0.2-0.2c-0.1-0.1-0.2-0.1-0.4-0.2
				c-0.2,0-0.4-0.1-0.6-0.1C-12.7,5.1-13,5-13.3,5c-0.4,0-0.8,0-1.1,0.1c-0.3,0-0.5,0.1-0.7,0.2c-0.2,0.1-0.3,0.1-0.4,0.2
				c-0.1,0.1-0.2,0.2-0.2,0.4c0,0.2-0.1,0.4-0.1,0.6c0,0.2,0,0.5,0,0.7c0,0.3,0,0.5,0,0.7c0,0.2,0,0.4,0.1,0.6
				c0,0.2,0.1,0.3,0.2,0.4c0.1,0.1,0.2,0.2,0.4,0.2c0.2,0.1,0.4,0.1,0.7,0.2c0.3,0,0.6,0,1.1,0c0.3,0,0.6,0,0.9,0
				c0.2,0,0.4-0.1,0.6-0.1c0.2,0,0.3-0.1,0.4-0.2c0.1-0.1,0.1-0.2,0.2-0.2c0-0.1,0.1-0.2,0.1-0.3c0-0.1,0-0.2,0-0.4h0.9
				c0,0.3-0.1,0.6-0.2,0.9c-0.1,0.2-0.2,0.5-0.5,0.6c-0.2,0.2-0.5,0.3-0.9,0.4c-0.4,0.1-0.9,0.1-1.5,0.1c-0.5,0-0.9,0-1.2-0.1
				c-0.4,0-0.6-0.1-0.9-0.2c-0.2-0.1-0.5-0.2-0.6-0.4c-0.2-0.1-0.3-0.3-0.4-0.5c-0.1-0.2-0.1-0.5-0.2-0.8
				C-16.7,7.9-16.7,7.6-16.7,7.2z"/>
		</g>
	</g>
</g>
<g>
	<g transform="translate(59.913652, 56.244577)">
		<g>
			<path class="st1" d="M-5.9,9.2c0,0-0.1,0.1-0.2,0.3c-0.1,0.1-0.2,0.2-0.4,0.3C-6.7,9.9-6.9,9.9-7.2,10c-0.3,0.1-0.6,0.1-1,0.1
				c-0.6,0-1.1,0-1.5-0.1c-0.4-0.1-0.7-0.2-1-0.3c-0.2-0.1-0.4-0.3-0.6-0.5c-0.1-0.2-0.2-0.4-0.2-0.7c0-0.3,0-0.5,0.1-0.7
				c0.1-0.2,0.2-0.4,0.3-0.5c0.1-0.1,0.3-0.2,0.5-0.3c0.2-0.1,0.4-0.1,0.6-0.2c0.2,0,0.5-0.1,0.7-0.1c0.3,0,0.6,0,0.9,0
				c0.4,0,0.8,0,1.1,0.1C-7,6.9-6.8,6.9-6.6,7c0.2,0.1,0.3,0.1,0.4,0.2C-6,7.2-6,7.3-5.9,7.4c0-0.4,0-0.7-0.1-0.9
				C-6,6.2-6.1,6-6.1,5.8c-0.1-0.2-0.2-0.3-0.3-0.4c-0.1-0.1-0.2-0.2-0.4-0.2C-7,5.1-7.1,5.1-7.4,5.1c-0.2,0-0.4,0-0.7,0
				c-0.4,0-0.8,0-1.1,0.1c-0.3,0-0.5,0.1-0.6,0.1c-0.2,0-0.3,0.1-0.4,0.2c-0.1,0.1-0.1,0.2-0.1,0.4h-0.9c0-0.3,0-0.5,0.2-0.7
				c0.1-0.2,0.3-0.4,0.5-0.5c0.2-0.1,0.6-0.2,0.9-0.3c0.4-0.1,0.9-0.1,1.5-0.1c0.6,0,1,0.1,1.4,0.2c0.4,0.1,0.7,0.3,0.9,0.5
				c0.2,0.2,0.4,0.5,0.5,0.9C-5.1,6.2-5,6.7-5,7.4V10h-0.9V9.2z M-8.1,9.3c0.4,0,0.7,0,1-0.1c0.3,0,0.5-0.1,0.7-0.2
				C-6.2,9.1-6.1,8.9-6,8.8C-6,8.7-5.9,8.6-5.9,8.4C-5.9,8.3-6,8.1-6,8c-0.1-0.1-0.2-0.2-0.4-0.2c-0.2-0.1-0.4-0.1-0.8-0.2
				c-0.3,0-0.7-0.1-1.1-0.1c-0.5,0-0.8,0-1.1,0c-0.3,0-0.5,0.1-0.6,0.1c-0.1,0-0.2,0.1-0.3,0.2c-0.1,0.1-0.1,0.3-0.1,0.5
				c0,0.2,0,0.3,0.1,0.5c0.1,0.1,0.2,0.2,0.3,0.3c0.2,0.1,0.4,0.1,0.8,0.1C-9,9.3-8.6,9.3-8.1,9.3z"/>
		</g>
	</g>
</g>
<g>
	<g transform="translate(65.321944, 56.244577)">
		<g>
			<path class="st1" d="M-3,10c-0.6,0-1.1,0-1.6-0.1c-0.4-0.1-0.8-0.2-1-0.5c-0.3-0.2-0.5-0.5-0.6-0.9c-0.1-0.4-0.2-0.8-0.2-1.4
				c0-0.6,0.1-1,0.2-1.4c0.1-0.4,0.3-0.7,0.6-0.9c0.3-0.2,0.6-0.4,1-0.5C-4.2,4.3-3.7,4.3-3,4.3c0.4,0,0.8,0,1.1,0.1
				c0.3,0,0.6,0.1,0.7,0.2s0.3,0.1,0.4,0.2c0.1,0.1,0.2,0.2,0.2,0.2V2.6h0.9V10h-0.9V9.1c0,0-0.1,0.1-0.2,0.3
				c-0.1,0.1-0.3,0.3-0.4,0.3C-1.4,9.8-1.6,9.9-1.9,10C-2.2,10-2.6,10-3,10z M-3,9.3c0.3,0,0.6,0,0.8,0c0.2,0,0.5,0,0.6-0.1
				C-1.4,9.2-1.2,9.1-1.1,9C-1,8.9-0.9,8.8-0.8,8.6c0.1-0.2,0.1-0.4,0.2-0.6c0-0.2,0.1-0.5,0.1-0.8c0-0.3,0-0.6-0.1-0.9
				c0-0.2-0.1-0.4-0.2-0.6C-0.9,5.6-1,5.5-1.1,5.4c-0.1-0.1-0.3-0.2-0.5-0.2C-1.8,5.1-2,5.1-2.2,5.1C-2.5,5-2.7,5-3,5
				c-0.4,0-0.7,0-0.9,0.1c-0.3,0-0.5,0.1-0.7,0.1c-0.2,0-0.3,0.1-0.5,0.2c-0.1,0.1-0.2,0.2-0.2,0.4C-5.4,6-5.4,6.2-5.5,6.4
				c0,0.2,0,0.5,0,0.8s0,0.6,0,0.8c0,0.2,0.1,0.4,0.1,0.6c0.1,0.1,0.1,0.3,0.2,0.4C-5,9.1-4.8,9.1-4.6,9.2C-4.4,9.3-4.2,9.3-4,9.3
				C-3.7,9.3-3.4,9.3-3,9.3z"/>
		</g>
	</g>
</g>
<g>
	<g transform="translate(70.820795, 56.244577)">
		<g>
			<path class="st1" d="M-1.1,7.1c0-0.6,0.1-1,0.2-1.4c0.1-0.4,0.3-0.7,0.6-0.9c0.3-0.2,0.6-0.4,1-0.5c0.4-0.1,0.9-0.2,1.6-0.2
				s1.1,0.1,1.6,0.2c0.4,0.1,0.8,0.2,1,0.5c0.3,0.2,0.5,0.5,0.6,0.9c0.1,0.4,0.2,0.8,0.2,1.4c0,0.6-0.1,1.1-0.2,1.4
				C5.3,8.9,5.1,9.2,4.8,9.5c-0.3,0.2-0.6,0.4-1,0.5C3.4,10,2.8,10,2.2,10s-1.1,0-1.6-0.1c-0.4-0.1-0.8-0.2-1-0.5
				C-0.6,9.2-0.8,8.9-1,8.6C-1.1,8.2-1.1,7.7-1.1,7.1z M-0.2,7.1c0,0.3,0,0.6,0,0.8c0,0.2,0.1,0.4,0.1,0.6C0,8.7,0.1,8.8,0.2,8.9
				c0.1,0.1,0.3,0.2,0.5,0.2S1,9.3,1.3,9.3c0.3,0,0.6,0,0.9,0c0.3,0,0.6,0,0.8,0c0.2,0,0.5,0,0.6-0.1C3.9,9.2,4,9.1,4.1,9
				c0.1-0.1,0.2-0.2,0.3-0.4C4.5,8.5,4.6,8.3,4.6,8c0-0.2,0.1-0.5,0.1-0.9c0-0.3,0-0.6-0.1-0.8c0-0.2-0.1-0.4-0.2-0.6
				C4.4,5.6,4.3,5.5,4.1,5.4C4,5.3,3.9,5.2,3.7,5.2C3.5,5.1,3.3,5.1,3,5.1C2.8,5,2.5,5,2.2,5s-0.6,0-0.8,0C1.2,5.1,1,5.1,0.8,5.2
				c-0.2,0-0.4,0.1-0.5,0.2C0.2,5.5,0.1,5.6,0,5.7c-0.1,0.2-0.1,0.4-0.2,0.6C-0.2,6.5-0.2,6.8-0.2,7.1z"/>
		</g>
	</g>
</g>
<g>
	<g transform="translate(76.241322, 56.244577)">
	</g>
</g>
<g>
	<g transform="translate(78.842226, 56.244577)">
		<g>
			<path class="st1" d="M9.9,10c-0.6,0-1.1,0-1.6-0.1c-0.4-0.1-0.8-0.2-1-0.5C7,9.2,6.8,8.9,6.7,8.6C6.6,8.2,6.5,7.8,6.5,7.2
				c0-0.6,0.1-1,0.2-1.4C6.8,5.4,7,5.1,7.3,4.9c0.3-0.2,0.6-0.4,1-0.5c0.4-0.1,0.9-0.2,1.6-0.2c0.4,0,0.8,0,1.1,0.1
				c0.3,0,0.6,0.1,0.7,0.2c0.2,0.1,0.3,0.1,0.4,0.2c0.1,0.1,0.2,0.2,0.2,0.2V2.6h0.9V10h-0.9V9.1c0,0-0.1,0.1-0.2,0.3
				c-0.1,0.1-0.3,0.3-0.4,0.3C11.5,9.8,11.3,9.9,11,10C10.7,10,10.3,10,9.9,10z M9.9,9.3c0.3,0,0.6,0,0.8,0c0.2,0,0.5,0,0.6-0.1
				c0.2-0.1,0.3-0.1,0.5-0.2c0.1-0.1,0.2-0.2,0.3-0.4c0.1-0.2,0.1-0.4,0.2-0.6c0-0.2,0.1-0.5,0.1-0.8c0-0.3,0-0.6-0.1-0.9
				c0-0.2-0.1-0.4-0.2-0.6c-0.1-0.2-0.2-0.3-0.3-0.4c-0.1-0.1-0.3-0.2-0.5-0.2c-0.2-0.1-0.4-0.1-0.6-0.1c-0.2,0-0.5,0-0.8,0
				C9.5,5,9.2,5.1,9,5.1c-0.3,0-0.5,0.1-0.7,0.1C8.1,5.3,8,5.3,7.8,5.4C7.7,5.5,7.7,5.7,7.6,5.8C7.5,6,7.5,6.2,7.5,6.4
				c0,0.2,0,0.5,0,0.8s0,0.6,0,0.8c0,0.2,0.1,0.4,0.1,0.6c0.1,0.1,0.1,0.3,0.2,0.4C8,9.1,8.1,9.1,8.3,9.2S8.7,9.3,9,9.3
				C9.2,9.3,9.5,9.3,9.9,9.3z"/>
		</g>
	</g>
</g>
<g>
	<g transform="translate(84.341076, 56.244577)">
		<g>
			<path class="st1" d="M15.2,10c-0.6,0-1.1,0-1.6-0.1c-0.4-0.1-0.8-0.2-1-0.4C12.3,9.3,12.1,9,12,8.7c-0.1-0.3-0.2-0.8-0.2-1.3
				c0-0.6,0.1-1.1,0.2-1.5c0.1-0.4,0.3-0.7,0.6-0.9c0.3-0.2,0.6-0.4,1-0.5c0.4-0.1,0.9-0.2,1.6-0.2c0.4,0,0.8,0,1.1,0.1
				c0.3,0.1,0.6,0.2,0.8,0.3c0.2,0.1,0.4,0.3,0.6,0.5C17.8,5.3,18,5.5,18,5.6c0.1,0.2,0.1,0.4,0.2,0.7c0,0.2,0.1,0.5,0.1,0.8
				l-0.1,0.3h-5.4c0,0.4,0,0.8,0.1,1c0.1,0.3,0.2,0.5,0.4,0.6c0.2,0.1,0.5,0.2,0.8,0.2c0.3,0,0.7,0,1.2,0c0.4,0,0.8,0,1,0
				c0.3,0,0.5-0.1,0.7-0.1C17,9.1,17.1,9,17.2,8.9c0.1-0.1,0.1-0.3,0.1-0.5h0.9c0,0.3-0.1,0.5-0.2,0.8c-0.1,0.2-0.3,0.4-0.5,0.5
				C17.3,9.8,17,9.9,16.6,10C16.2,10,15.7,10,15.2,10z M15.2,5c-0.3,0-0.6,0-0.8,0c-0.2,0-0.4,0.1-0.6,0.1c-0.2,0-0.4,0.1-0.5,0.2
				c-0.1,0.1-0.2,0.2-0.3,0.3c-0.1,0.1-0.1,0.3-0.2,0.5c0,0.2-0.1,0.4-0.1,0.7h4.6c0-0.4,0-0.6-0.1-0.9c-0.1-0.2-0.2-0.4-0.4-0.5
				c-0.2-0.1-0.4-0.2-0.7-0.3C15.9,5.1,15.5,5,15.2,5z"/>
		</g>
	</g>
</g>
<g>
	<g transform="translate(89.683278, 56.244577)">
	</g>
</g>
<g>
	<g transform="translate(92.284179, 56.244577)">
		<g>
			<path class="st1" d="M24.3,6.2c0-0.2,0-0.4-0.1-0.6c0-0.2-0.1-0.3-0.2-0.4c-0.1-0.1-0.3-0.2-0.6-0.2c-0.2,0-0.6-0.1-1-0.1
				c-0.4,0-0.7,0-1,0.1c-0.2,0.1-0.5,0.2-0.6,0.3c-0.1,0.1-0.2,0.3-0.3,0.5c0,0.2-0.1,0.4-0.1,0.6V10h-0.9V4.4h0.9v0.9
				c0-0.1,0.1-0.2,0.2-0.3c0.1-0.1,0.2-0.2,0.4-0.3c0.2-0.1,0.4-0.2,0.7-0.3c0.3-0.1,0.6-0.1,1-0.1c0.5,0,0.9,0.1,1.2,0.2
				c0.3,0.1,0.5,0.2,0.7,0.4C24.8,5,24.9,5.2,25,5.4c0.1,0.2,0.1,0.5,0.1,0.8H24.3z"/>
		</g>
	</g>
</g>
<g>
	<g transform="translate(96.921475, 56.244577)">
		<g>
			<path class="st1" d="M27.2,10c-0.6,0-1.1,0-1.6-0.1c-0.4-0.1-0.8-0.2-1-0.4C24.3,9.3,24.1,9,24,8.7c-0.1-0.3-0.2-0.8-0.2-1.3
				c0-0.6,0.1-1.1,0.2-1.5c0.1-0.4,0.3-0.7,0.6-0.9c0.3-0.2,0.6-0.4,1-0.5c0.4-0.1,0.9-0.2,1.6-0.2c0.4,0,0.8,0,1.1,0.1
				c0.3,0.1,0.6,0.2,0.8,0.3c0.2,0.1,0.4,0.3,0.6,0.5c0.1,0.2,0.3,0.3,0.3,0.5c0.1,0.2,0.1,0.4,0.2,0.7c0,0.2,0.1,0.5,0.1,0.8
				l-0.1,0.3h-5.4c0,0.4,0,0.8,0.1,1c0.1,0.3,0.2,0.5,0.4,0.6c0.2,0.1,0.5,0.2,0.8,0.2c0.3,0,0.7,0,1.2,0c0.4,0,0.8,0,1,0
				c0.3,0,0.5-0.1,0.7-0.1c0.2-0.1,0.3-0.2,0.3-0.3c0.1-0.1,0.1-0.3,0.1-0.5h0.9c0,0.3-0.1,0.5-0.2,0.8c-0.1,0.2-0.3,0.4-0.5,0.5
				C29.4,9.8,29,9.9,28.7,10C28.3,10,27.8,10,27.2,10z M27.2,5c-0.3,0-0.6,0-0.8,0c-0.2,0-0.4,0.1-0.6,0.1c-0.2,0-0.4,0.1-0.5,0.2
				C25.2,5.4,25,5.5,25,5.6c-0.1,0.1-0.1,0.3-0.2,0.5c0,0.2-0.1,0.4-0.1,0.7h4.6c0-0.4,0-0.6-0.1-0.9c-0.1-0.2-0.2-0.4-0.4-0.5
				c-0.2-0.1-0.4-0.2-0.7-0.3C27.9,5.1,27.6,5,27.2,5z"/>
		</g>
	</g>
</g>
<g>
	<g transform="translate(102.263677, 56.244577)">
		<g>
			<path class="st1" d="M32.5,4.3c0.6,0,1.2,0.1,1.6,0.2c0.4,0.1,0.8,0.3,1,0.5c0.3,0.2,0.5,0.5,0.6,0.9c0.1,0.4,0.2,0.8,0.2,1.4
				c0,0.6-0.1,1-0.2,1.4c-0.1,0.4-0.3,0.7-0.6,0.9c-0.3,0.2-0.6,0.4-1,0.5c-0.4,0.1-1,0.1-1.6,0.1c-0.4,0-0.8,0-1.1-0.1
				c-0.3,0-0.5-0.1-0.7-0.2c-0.2-0.1-0.3-0.2-0.4-0.2c-0.1-0.1-0.2-0.2-0.2-0.2v2.4h-0.9V4.4H30v0.5c0-0.1,0.1-0.1,0.2-0.2
				c0.1-0.1,0.2-0.2,0.4-0.2s0.4-0.1,0.7-0.2C31.7,4.3,32,4.3,32.5,4.3z M32.5,5c-0.3,0-0.6,0-0.8,0c-0.2,0-0.4,0.1-0.6,0.1
				c-0.2,0-0.3,0.1-0.5,0.2c-0.1,0.1-0.2,0.2-0.3,0.4c-0.1,0.2-0.1,0.4-0.2,0.6C30,6.6,30,6.9,30,7.2c0,0.3,0,0.6,0.1,0.9
				c0,0.2,0.1,0.4,0.2,0.6c0.1,0.1,0.2,0.3,0.3,0.4c0.1,0.1,0.3,0.2,0.5,0.2c0.2,0,0.4,0.1,0.6,0.1c0.2,0,0.5,0,0.8,0
				c0.4,0,0.7,0,0.9,0c0.3,0,0.5-0.1,0.6-0.1c0.2-0.1,0.3-0.1,0.5-0.2c0.1-0.1,0.2-0.2,0.3-0.4c0.1-0.2,0.1-0.4,0.1-0.6
				c0-0.2,0-0.5,0-0.8s0-0.6,0-0.8c0-0.2-0.1-0.4-0.1-0.6c-0.1-0.2-0.2-0.3-0.3-0.4c-0.1-0.1-0.3-0.2-0.5-0.2
				c-0.2-0.1-0.4-0.1-0.6-0.1C33.1,5.1,32.8,5,32.5,5z"/>
		</g>
	</g>
</g>
<g>
	<g transform="translate(107.762524, 56.244577)">
		<g>
			<path class="st1" d="M35.3,4.4v3.1c0,0.4,0,0.6,0.1,0.9c0.1,0.2,0.2,0.4,0.3,0.6c0.2,0.1,0.4,0.2,0.7,0.3
				c0.3,0.1,0.7,0.1,1.1,0.1c0.5,0,0.9,0,1.2-0.1c0.3-0.1,0.6-0.2,0.8-0.3c0.2-0.1,0.3-0.3,0.4-0.5c0.1-0.2,0.1-0.4,0.1-0.6V4.4h0.9
				V10h-0.9V9c0,0.1-0.1,0.2-0.2,0.3c-0.1,0.1-0.3,0.2-0.5,0.3C39,9.8,38.7,9.9,38.4,10C38,10,37.6,10,37.1,10c-0.4,0-0.8,0-1.1-0.1
				c-0.3,0-0.5-0.1-0.7-0.2c-0.2-0.1-0.4-0.2-0.5-0.4c-0.1-0.1-0.2-0.3-0.3-0.5c-0.1-0.2-0.1-0.4-0.1-0.6c0-0.2,0-0.5,0-0.8V4.4
				H35.3z"/>
		</g>
	</g>
</g>
<g>
	<g transform="translate(113.185499, 56.244577)">
		<g>
			<path class="st1" d="M42.8,10c-0.6,0-1.1,0-1.6-0.1c-0.4-0.1-0.8-0.2-1-0.4c-0.3-0.2-0.5-0.5-0.6-0.8c-0.1-0.3-0.2-0.8-0.2-1.3
				c0-0.6,0.1-1.1,0.2-1.5c0.1-0.4,0.3-0.7,0.6-0.9c0.3-0.2,0.6-0.4,1-0.5c0.4-0.1,0.9-0.2,1.6-0.2c0.4,0,0.8,0,1.1,0.1
				c0.3,0.1,0.6,0.2,0.8,0.3c0.2,0.1,0.4,0.3,0.6,0.5c0.1,0.2,0.3,0.3,0.3,0.5c0.1,0.2,0.1,0.4,0.2,0.7c0,0.2,0.1,0.5,0.1,0.8
				l-0.1,0.3h-5.4c0,0.4,0,0.8,0.1,1c0.1,0.3,0.2,0.5,0.4,0.6c0.2,0.1,0.5,0.2,0.8,0.2c0.3,0,0.7,0,1.2,0c0.4,0,0.8,0,1,0
				c0.3,0,0.5-0.1,0.7-0.1c0.2-0.1,0.3-0.2,0.3-0.3c0.1-0.1,0.1-0.3,0.1-0.5h0.9c0,0.3-0.1,0.5-0.2,0.8c-0.1,0.2-0.3,0.4-0.5,0.5
				c-0.2,0.1-0.6,0.2-0.9,0.2C43.8,10,43.4,10,42.8,10z M42.8,5c-0.3,0-0.6,0-0.8,0c-0.2,0-0.4,0.1-0.6,0.1c-0.2,0-0.4,0.1-0.5,0.2
				c-0.1,0.1-0.2,0.2-0.3,0.3c-0.1,0.1-0.1,0.3-0.2,0.5c0,0.2-0.1,0.4-0.1,0.7h4.6c0-0.4,0-0.6-0.1-0.9c-0.1-0.2-0.2-0.4-0.4-0.5
				c-0.2-0.1-0.4-0.2-0.7-0.3C43.5,5.1,43.1,5,42.8,5z"/>
		</g>
	</g>
</g>
<g>
	<g transform="translate(118.527701, 56.244577)">
		<g>
			<path class="st1" d="M47.9,7.4c0.4,0,0.7,0,0.9,0c0.3,0,0.5,0,0.6,0c0.2,0,0.3,0.1,0.4,0.1c0.1,0,0.2,0.1,0.2,0.2
				c0.1,0.1,0.1,0.2,0.1,0.2c0,0.1,0,0.2,0,0.3c0,0.1,0,0.2,0,0.3c0,0.1-0.1,0.2-0.1,0.3C50,9,49.9,9,49.8,9.1
				c-0.1,0-0.2,0.1-0.4,0.1c-0.2,0-0.4,0.1-0.7,0.1c-0.3,0-0.6,0-1,0c-0.4,0-0.8,0-1,0c-0.3,0-0.5-0.1-0.6-0.1
				c-0.2-0.1-0.3-0.2-0.4-0.3c-0.1-0.1-0.1-0.3-0.1-0.5h-0.9c0,0.3,0,0.5,0.2,0.7c0.1,0.2,0.3,0.4,0.5,0.5s0.6,0.2,0.9,0.3
				c0.4,0.1,0.9,0.1,1.4,0.1c0.5,0,0.9,0,1.2-0.1c0.3,0,0.6,0,0.9-0.1c0.2-0.1,0.4-0.1,0.6-0.2c0.2-0.1,0.3-0.2,0.4-0.3
				C50.9,9.2,51,9,51.1,8.9c0-0.2,0.1-0.3,0.1-0.6c0-0.2,0-0.4-0.1-0.6c0-0.2-0.1-0.3-0.2-0.4c-0.1-0.1-0.2-0.2-0.4-0.3
				c-0.2-0.1-0.4-0.2-0.6-0.2c-0.2,0-0.5-0.1-0.8-0.1c-0.3,0-0.7,0-1.2,0c-0.4,0-0.7,0-0.9,0c-0.2,0-0.5,0-0.6,0
				c-0.2,0-0.3,0-0.4-0.1c-0.1,0-0.2-0.1-0.2-0.2c0-0.1-0.1-0.1-0.1-0.2c0-0.1,0-0.2,0-0.3c0-0.2,0-0.3,0.1-0.4
				c0.1-0.1,0.2-0.2,0.4-0.2c0.2-0.1,0.5-0.1,0.8-0.1c0.3,0,0.7,0,1.2,0c0.4,0,0.8,0,1,0.1c0.3,0,0.5,0.1,0.7,0.1
				c0.2,0.1,0.3,0.2,0.3,0.3c0.1,0.1,0.1,0.2,0.1,0.4h0.9c0-0.3-0.1-0.5-0.2-0.7c-0.1-0.2-0.2-0.4-0.5-0.5c-0.2-0.1-0.5-0.2-0.9-0.3
				c-0.4-0.1-0.9-0.1-1.5-0.1c-0.6,0-1.1,0-1.6,0.1s-0.8,0.2-1,0.3c-0.3,0.1-0.5,0.3-0.6,0.5c-0.1,0.2-0.2,0.4-0.2,0.7
				c0,0.2,0,0.4,0.1,0.6c0,0.2,0.1,0.3,0.2,0.4C45,7,45.1,7.1,45.3,7.2c0.2,0.1,0.4,0.1,0.6,0.2c0.2,0,0.5,0,0.9,0.1
				C47.1,7.4,47.4,7.4,47.9,7.4z"/>
		</g>
	</g>
</g>
<g>
	<g transform="translate(123.948226, 56.244577)">
		<g>
			<path class="st1" d="M55.2,7.5c0,0.5,0,0.9-0.1,1.2C55,9,54.9,9.3,54.7,9.4c-0.2,0.2-0.4,0.3-0.7,0.4c-0.3,0.1-0.7,0.1-1.1,0.1
				c-0.4,0-0.8,0-1-0.1c-0.3-0.1-0.5-0.2-0.7-0.3c-0.2-0.2-0.3-0.4-0.4-0.6c-0.1-0.3-0.1-0.6-0.1-1V5.2h-1.1V4.4h1.1V2.9h0.9v1.5
				h3.5v0.8h-3.5V8c0,0.3,0,0.5,0.1,0.7C51.7,8.8,51.8,9,51.9,9c0.1,0.1,0.2,0.1,0.4,0.2c0.2,0,0.4,0,0.6,0c0.2,0,0.4,0,0.5,0
				c0.2,0,0.3,0,0.4-0.1C54,9.1,54,9,54.1,9c0.1-0.1,0.1-0.2,0.2-0.3c0.1-0.1,0.1-0.3,0.1-0.5c0-0.2,0.1-0.4,0.1-0.7H55.2z"/>
		</g>
	</g>
</g>
<g>
	<g transform="translate(128.82049, 56.244577)">
		<g>
			<path class="st1" d="M54.4,7.1c0-0.6,0.1-1,0.2-1.4c0.1-0.4,0.3-0.7,0.6-0.9c0.3-0.2,0.6-0.4,1-0.5c0.4-0.1,0.9-0.2,1.6-0.2
				s1.1,0.1,1.6,0.2c0.4,0.1,0.8,0.2,1,0.5c0.3,0.2,0.5,0.5,0.6,0.9c0.1,0.4,0.2,0.8,0.2,1.4c0,0.6-0.1,1.1-0.2,1.4
				c-0.1,0.4-0.3,0.7-0.6,0.9c-0.3,0.2-0.6,0.4-1,0.5C58.9,10,58.3,10,57.7,10s-1.1,0-1.6-0.1c-0.4-0.1-0.8-0.2-1-0.5
				c-0.3-0.2-0.5-0.5-0.6-0.9C54.4,8.2,54.4,7.7,54.4,7.1z M55.3,7.1c0,0.3,0,0.6,0,0.8c0,0.2,0.1,0.4,0.1,0.6
				c0.1,0.2,0.1,0.3,0.2,0.4c0.1,0.1,0.3,0.2,0.5,0.2s0.4,0.1,0.7,0.1c0.3,0,0.6,0,0.9,0c0.3,0,0.6,0,0.8,0c0.2,0,0.5,0,0.6-0.1
				c0.2-0.1,0.3-0.1,0.5-0.2c0.1-0.1,0.2-0.2,0.3-0.4C60,8.5,60.1,8.3,60.1,8c0-0.2,0.1-0.5,0.1-0.9c0-0.3,0-0.6-0.1-0.8
				c0-0.2-0.1-0.4-0.2-0.6c-0.1-0.2-0.2-0.3-0.3-0.4c-0.1-0.1-0.3-0.2-0.5-0.2c-0.2,0-0.4-0.1-0.6-0.1c-0.2,0-0.5,0-0.8,0
				s-0.6,0-0.8,0c-0.2,0-0.4,0.1-0.6,0.1c-0.2,0-0.4,0.1-0.5,0.2c-0.1,0.1-0.2,0.2-0.3,0.4c-0.1,0.2-0.1,0.4-0.2,0.6
				C55.3,6.5,55.3,6.8,55.3,7.1z"/>
		</g>
	</g>
</g>
<g>
	<g transform="translate(134.24102, 56.244577)">
		<g>
			<path class="st1" d="M62.9,7.4c0.4,0,0.7,0,0.9,0c0.3,0,0.5,0,0.6,0c0.2,0,0.3,0.1,0.4,0.1c0.1,0,0.2,0.1,0.2,0.2
				c0.1,0.1,0.1,0.2,0.1,0.2c0,0.1,0,0.2,0,0.3c0,0.1,0,0.2,0,0.3c0,0.1-0.1,0.2-0.1,0.3C65,9,65,9,64.9,9.1c-0.1,0-0.2,0.1-0.4,0.1
				c-0.2,0-0.4,0.1-0.7,0.1c-0.3,0-0.6,0-1,0c-0.4,0-0.8,0-1,0c-0.3,0-0.5-0.1-0.6-0.1c-0.2-0.1-0.3-0.2-0.4-0.3
				c-0.1-0.1-0.1-0.3-0.1-0.5h-0.9c0,0.3,0,0.5,0.2,0.7c0.1,0.2,0.3,0.4,0.5,0.5s0.6,0.2,0.9,0.3c0.4,0.1,0.9,0.1,1.4,0.1
				c0.5,0,0.9,0,1.2-0.1c0.3,0,0.6,0,0.9-0.1c0.2-0.1,0.4-0.1,0.6-0.2c0.2-0.1,0.3-0.2,0.4-0.3C66,9.2,66.1,9,66.1,8.9
				c0-0.2,0.1-0.3,0.1-0.6c0-0.2,0-0.4-0.1-0.6c0-0.2-0.1-0.3-0.2-0.4c-0.1-0.1-0.2-0.2-0.4-0.3c-0.2-0.1-0.4-0.2-0.6-0.2
				c-0.2,0-0.5-0.1-0.8-0.1c-0.3,0-0.7,0-1.2,0c-0.4,0-0.7,0-0.9,0c-0.2,0-0.5,0-0.6,0c-0.2,0-0.3,0-0.4-0.1c-0.1,0-0.2-0.1-0.2-0.2
				c0-0.1-0.1-0.1-0.1-0.2c0-0.1,0-0.2,0-0.3c0-0.2,0-0.3,0.1-0.4c0.1-0.1,0.2-0.2,0.4-0.2c0.2-0.1,0.5-0.1,0.8-0.1
				c0.3,0,0.7,0,1.2,0c0.4,0,0.8,0,1,0.1c0.3,0,0.5,0.1,0.7,0.1c0.2,0.1,0.3,0.2,0.3,0.3c0.1,0.1,0.1,0.2,0.1,0.4h0.9
				c0-0.3-0.1-0.5-0.2-0.7c-0.1-0.2-0.2-0.4-0.5-0.5c-0.2-0.1-0.5-0.2-0.9-0.3c-0.4-0.1-0.9-0.1-1.5-0.1c-0.6,0-1.1,0-1.6,0.1
				s-0.8,0.2-1,0.3c-0.3,0.1-0.5,0.3-0.6,0.5c-0.1,0.2-0.2,0.4-0.2,0.7c0,0.2,0,0.4,0.1,0.6c0,0.2,0.1,0.3,0.2,0.4
				C60,7,60.2,7.1,60.3,7.2c0.2,0.1,0.4,0.1,0.6,0.2c0.2,0,0.5,0,0.9,0.1C62.1,7.4,62.5,7.4,62.9,7.4z"/>
		</g>
	</g>
</g>
</svg>
