<svg width="13" height="18" viewBox="0 0 13 18" fill="none" xmlns="http://www.w3.org/2000/svg">
<g clip-path="url(#clip0_302_1179)">
<path d="M5.37 11.89C5.37 11.28 5.47 10.74 5.68 10.27C5.89 9.81 6.15 9.39 6.46 9.03C6.78 8.67 7.11 8.32 7.47 8.01C7.83 7.69 8.16 7.39 8.48 7.09C8.79 6.79 9.05 6.48 9.25 6.14C9.45 5.81 9.55 5.43 9.55 5.02C9.55 4.32 9.27 3.76 8.72 3.34C8.16 2.92 7.4 2.71 6.42 2.71C5.54 2.71 4.76 2.87 4.08 3.2C3.4 3.52 2.84 3.99 2.39 4.61L0 3.04C0.68 2.09 1.58 1.35 2.71 0.81C3.84 0.27 5.16 0 6.69 0C7.92 0 8.99 0.18 9.9 0.54C10.81 0.9 11.52 1.41 12.04 2.08C12.56 2.75 12.81 3.56 12.81 4.51C12.81 5.21 12.71 5.8 12.51 6.29C12.31 6.78 12.05 7.21 11.73 7.58C11.41 7.95 11.06 8.3 10.69 8.62C10.32 8.94 9.97 9.26 9.65 9.58C9.33 9.9 9.06 10.24 8.85 10.61C8.64 10.98 8.54 11.41 8.54 11.89H5.38H5.37ZM6.96 17.84C6.4 17.84 5.93 17.65 5.55 17.27C5.18 16.89 4.99 16.43 4.99 15.9C4.99 15.37 5.18 14.92 5.55 14.54C5.92 14.17 6.39 13.98 6.96 13.98C7.56 13.98 8.04 14.17 8.4 14.54C8.76 14.91 8.95 15.37 8.95 15.9C8.95 16.43 8.77 16.89 8.4 17.27C8.03 17.65 7.55 17.84 6.96 17.84V17.84Z" fill="white"/>
</g>
<defs>
<clipPath id="clip0_302_1179">
<rect width="12.81" height="17.84" fill="white"/>
</clipPath>
</defs>
</svg>
